<?xml version="1.0" encoding="UTF-8" standalone="no"?>
<!-- Created with Inkscape (http://www.inkscape.org/) -->

<svg
   id="svg2"
   version="1.1"
   inkscape:version="1.2.2 (732a01da63, 2022-12-09)"
   xml:space="preserve"
   width="1573.2271"
   height="1729.197"
   viewBox="0 0 1573.2272 1729.1969"
   sodipodi:docname="cast.svg"
   inkscape:export-filename="cast.png"
   inkscape:export-xdpi="96"
   inkscape:export-ydpi="96"
   xmlns:inkscape="http://www.inkscape.org/namespaces/inkscape"
   xmlns:sodipodi="http://sodipodi.sourceforge.net/DTD/sodipodi-0.dtd"
   xmlns="http://www.w3.org/2000/svg"
   xmlns:svg="http://www.w3.org/2000/svg"
   xmlns:rdf="http://www.w3.org/1999/02/22-rdf-syntax-ns#"
   xmlns:cc="http://creativecommons.org/ns#"
   xmlns:dc="http://purl.org/dc/elements/1.1/"><metadata
     id="metadata8"><rdf:RDF><cc:Work
         rdf:about=""><dc:format>image/svg+xml</dc:format><dc:type
           rdf:resource="http://purl.org/dc/dcmitype/StillImage" /></cc:Work></rdf:RDF></metadata><defs
     id="defs6" /><sodipodi:namedview
     pagecolor="#ffffff"
     bordercolor="#666666"
     borderopacity="1"
     objecttolerance="10"
     gridtolerance="10"
     guidetolerance="10"
     inkscape:pageopacity="0"
     inkscape:pageshadow="2"
     inkscape:window-width="3840"
     inkscape:window-height="2126"
     id="namedview4"
     showgrid="true"
     inkscape:zoom="0.62933332"
     inkscape:cx="1521.4513"
     inkscape:cy="543.43221"
     inkscape:window-x="-11"
     inkscape:window-y="-11"
     inkscape:window-maximized="1"
     inkscape:current-layer="layer1"
     fit-margin-top="80"
     fit-margin-left="80"
     fit-margin-right="80"
     fit-margin-bottom="80"
     showguides="false"
     inkscape:showpageshadow="0"
     inkscape:pagecheckerboard="0"
     inkscape:deskcolor="#d1d1d1"><inkscape:grid
       type="xygrid"
       id="grid3748"
       spacingx="30"
       spacingy="30"
       originx="-41.731562"
       originy="-125.84856" /></sodipodi:namedview><g
     inkscape:groupmode="layer"
     id="layer1"
     inkscape:label="title"
     style="display:inline"
     transform="translate(-591.29054,63.215152)"><text
   transform="scale(0.89719219,1.1145884)"
   style="font-variant:normal;font-weight:normal;font-stretch:normal;font-size:27.2109px;line-height:0%;font-family:Times;-inkscape-font-specification:Times-Roman;writing-mode:lr-tb;display:inline;fill:#6704ff;fill-opacity:1;fill-rule:nonzero;stroke:none;stroke-width:2.26758"
   id="text24"
   x="743.41449"
   y="1404.9867"><tspan
     x="743.41449"
     sodipodi:role="line"
     id="tspan28"
     y="1404.9867"
     style="font-style:normal;font-variant:normal;font-weight:normal;font-stretch:normal;font-size:483.749px;line-height:1.25;font-family:Orbitron;-inkscape-font-specification:Orbitron;fill:#6704ff;fill-opacity:1;stroke-width:2.26758">CAST</tspan></text>




<g
   id="g425"
   transform="matrix(0.20703678,0,0,0.20703678,847.60231,35.387466)"><g
     id="l4mzKztNUcRfksIgq6ig1zbj"
     fill="#ffdd54"
     stroke="#ffdd54"
     stroke-width="1"
     fill-rule="evenodd"><g
       id="g377"><path
         id="p1DzqT4OMd"
         d="m 1680,2270 c -46,-31 -63,-74 -68,-177 l -5,-91 -91,-5 c -58,-3 -104,-11 -124,-21 -97,-50 -97,-202 0,-253 21,-11 63,-19 124,-22 l 91,-4 5,-93 c 5,-106 23,-147 76,-178 67,-39 156,-15 195,52 14,24 21,59 24,126 l 5,93 91,4 c 61,3 103,11 124,22 97,51 97,203 0,253 -20,10 -66,18 -124,21 l -91,5 -5,91 c -7,143 -48,197 -147,197 -33,0 -61,-7 -80,-20" /><path
         id="pLinlVjHv"
         d="m 3380,1530 v -4 c 0,-2 -92,-31 -203,-66 -111,-34 -222,-72 -245,-83 -30,-13 -49,-32 -63,-58 -11,-21 -19,-54 -19,-73 0,-18 10,-49 22,-68 14,-21 123,-104 286,-218 l 262,-185 -7,-316 c -4,-230 -3,-325 5,-351 7,-19 25,-48 41,-63 15,-15 43,-30 62,-34 18,-4 48,-5 65,-1 19,4 137,85 284,194 139,104 260,190 268,192 9,3 150,-41 314,-96 163,-55 311,-100 328,-100 17,0 44,6 60,15 16,8 30,17 30,20 v 5 0 l -480,482 c -264,265 -480,483 -480,483 0,0 -44,43 -98,97 -54,54 -98,98 -98,98 0,0 -35,35 -79,79 -43,43 -89,82 -103,85 -13,3 -29,3 -35,-1 -7,-5 -18,-9 -24,-10 -7,-1 -27,-6 -46,-13 -18,-6 -36,-10 -40,-10 h -7" /><path
         id="pdtVKNBap"
         d="m 1330,1020 c -86,-57 -79,-200 11,-246 97,-50 208,16 208,123 1,88 -53,143 -139,143 -33,0 -61,-7 -80,-20" /><path
         id="p1Cn8gPfbl"
         d="m 2380,870 c -46,-31 -63,-74 -68,-177 l -5,-91 -91,-5 c -58,-3 -104,-11 -124,-21 -97,-50 -97,-202 0,-253 21,-11 63,-19 124,-22 l 91,-4 5,-93 c 3,-67 10,-102 24,-126 39,-67 128,-91 195,-52 53,31 71,72 76,178 l 5,93 91,4 c 61,3 103,11 124,22 97,51 97,203 0,253 -20,10 -66,18 -124,21 l -91,5 -5,91 c -7,143 -48,197 -147,197 -33,0 -61,-7 -80,-20" /></g></g><g
     id="l23Ie8CrOqhcfbHPNPj49Paj"
     fill="#ffb454"
     stroke="#ffb454"
     stroke-width="1"
     fill-rule="evenodd"><g
       id="g384"><path
         id="pPWbb9DiM"
         d="m 4590,3770 c -46,-31 -63,-74 -68,-177 l -5,-91 -91,-5 c -58,-3 -104,-11 -124,-21 -97,-50 -97,-202 0,-253 21,-11 63,-19 124,-22 l 91,-4 5,-93 c 5,-106 23,-147 76,-178 67,-39 156,-15 195,52 14,24 21,59 24,126 l 5,93 91,4 c 61,3 103,11 124,22 97,51 97,203 0,253 -20,10 -66,18 -124,21 l -91,5 -5,91 c -7,143 -48,197 -147,197 -33,0 -61,-7 -80,-20" /><path
         id="pTuR7domd"
         d="m 3390,3320 c -86,-57 -79,-200 11,-246 97,-50 208,16 208,123 1,88 -53,143 -139,143 -33,0 -61,-7 -80,-20" /><path
         id="p17fzWPuQc"
         d="m 2200,2910 -5,-7 c -3,-4 -5,-7 -5,-8 0,0 -18,-20 -40,-43 l -40,-42 v 0 l 123,-127 c 68,-69 163,-165 210,-212 48,-48 87,-86 87,-86 0,0 191,-193 425,-428 l 425,-427 v 0 h 7 c 4,0 22,4 40,10 19,7 39,12 46,13 6,1 17,5 24,10 6,4 22,4 35,1 14,-3 60,-42 103,-85 44,-44 79,-79 79,-79 0,0 44,-44 98,-98 54,-54 98,-97 98,-97 0,0 216,-218 480,-483 l 480,-482 v 0 l 8,-1 c 5,0 16,16 25,35 9,18 17,49 17,67 0,18 -46,169 -102,335 l -102,301 189,254 c 103,139 194,271 201,291 8,21 11,50 7,65 -3,15 -15,42 -25,59 -10,17 -35,39 -56,49 -33,16 -68,17 -361,13 l -325,-3 -188,265 c -133,186 -198,270 -221,282 -18,10 -49,18 -70,18 -21,0 -51,-7 -67,-15 -16,-9 -38,-28 -48,-43 -11,-15 -50,-128 -88,-250 -38,-122 -70,-222 -72,-222 h -2 v 0 l -4,-8 c -2,-4 -13,-40 -25,-80 -12,-40 -28,-72 -34,-72 -7,0 -153,140 -324,311 -171,171 -310,317 -308,323 3,6 -148,163 -335,350 -187,187 -340,342 -340,343 v 3 0 h -5 c -3,0 -8,0 -10,0 h -5" /><path
         id="pAiW79nkJ"
         d="m 4590,2520 c -86,-57 -79,-200 11,-246 97,-50 208,16 208,123 1,88 -53,143 -139,143 -33,0 -61,-7 -80,-20" /></g></g><g
     id="l2VRT3SCTTL7Jypk2ZR57b6j"
     fill="#453d81"
     stroke="#453d81"
     stroke-width="1"
     fill-rule="evenodd"><g
       id="g388"><path
         id="p8WEKUYlk"
         d="M 90,5020 1145,3965 2200,2910 v 0 h 5 c 2,0 7,0 10,0 h 5 v 0 l 40,42 c 22,23 40,43 40,43 0,1 2,4 5,8 l 5,7 v 0 2 c 1,1 9,16 20,33 10,16 19,41 20,55 1,13 1,38 1,54 -1,26 -131,160 -944,973 -796,796 -950,945 -992,964 -35,15 -71,22 -115,22 -46,0 -80,-6 -115,-22 -28,-12 -60,-32 -73,-44 -12,-11 -22,-22 -22,-24 v -3" /></g></g><g
     id="ljjS987ImMBu9Z3AkH4j8cj"
     fill="#6b61b1"
     stroke="#6b61b1"
     stroke-width="1"
     fill-rule="evenodd"><g
       id="g392"><path
         id="pmKMv1TTr"
         d="m 2110,2810 40,42 c 22,23 40,43 40,43 0,1 2,4 5,8 l 5,7 v 0 L 1145,3965 90,5020 v 0 h -5 c -2,0 -14,-14 -25,-30 -12,-16 -28,-46 -37,-67 -9,-21 -15,-66 -15,-104 0,-47 6,-82 21,-116 18,-40 185,-212 948,-977 510,-510 940,-934 955,-942 14,-8 46,-14 70,-14 26,0 54,7 73,20 16,10 31,19 32,19 l 3,1" /></g></g><g
     id="l5Orh5w7zgyS3NhfUmqsdYAj"
     fill="#ff8659"
     stroke="#ff8659"
     stroke-width="1"
     fill-rule="evenodd"><g
       id="g396"><path
         id="pmb98zkTR"
         d="m 2220,2910 v -3 c 0,-1 153,-156 340,-343 187,-187 338,-344 335,-350 -2,-6 137,-152 308,-323 171,-171 317,-311 324,-311 6,0 22,32 34,72 12,40 23,76 25,80 l 4,8 v 0 l -428,425 c -235,233 -428,425 -428,425 0,0 -38,38 -86,86 -47,47 -143,142 -212,210 l -126,124 v 0 l -5,-7 c -3,-4 -5,-7 -5,-8 0,0 -18,-20 -40,-43 l -40,-42" /></g></g></g></g></svg>
